<?xml version="1.0" encoding="UTF-8" standalone="no"?>
<svg
   viewBox="0 0 256 256"
   version="1.1"
   preserveAspectRatio="xMidYMid"
   id="svg1"
   sodipodi:docname="favicon.svg"
   width="256"
   height="256"
   inkscape:version="1.4.3 (0d15f75, 2025-12-25)"
   inkscape:export-filename="favicon.png"
   inkscape:export-xdpi="96"
   inkscape:export-ydpi="96"
   xmlns:inkscape="http://www.inkscape.org/namespaces/inkscape"
   xmlns:sodipodi="http://sodipodi.sourceforge.net/DTD/sodipodi-0.dtd"
   xmlns="http://www.w3.org/2000/svg"
   xmlns:svg="http://www.w3.org/2000/svg"
   xmlns:rdf="http://www.w3.org/1999/02/22-rdf-syntax-ns#"
   xmlns:cc="http://creativecommons.org/ns#"
   xmlns:dc="http://purl.org/dc/elements/1.1/">
  <defs
     id="defs1" />
  <sodipodi:namedview
     id="namedview1"
     pagecolor="#505050"
     bordercolor="#eeeeee"
     borderopacity="1"
     inkscape:showpageshadow="false"
     inkscape:pageopacity="0"
     inkscape:pagecheckerboard="true"
     inkscape:deskcolor="#505050"
     labelstyle="default"
     inkscape:zoom="1.956662"
     inkscape:cx="97.870763"
     inkscape:cy="152.04466"
     inkscape:window-width="1920"
     inkscape:window-height="1009"
     inkscape:window-x="1912"
     inkscape:window-y="-8"
     inkscape:window-maximized="1"
     inkscape:current-layer="Iconly/Bulk/Password" />
  <title
     id="title1">Iconly/Bulk/Password</title>
  <g
     id="Iconly/Bulk/Password"
     stroke="#0F172A"
     stroke-width="0.0505169"
     fill="none"
     fill-rule="evenodd"
     style="fill:none;stroke:#0f172a"
     class=""
     data-editor-stroke-width-attr="1"
     data-editor-stroke-width-style=""
     data-editor-trace-stored="1"
     data-editor-trace-stroke-attr="#FFFFFF"
     data-editor-trace-stroke-style="#FFFFFF"
     data-editor-trace-width-attr="1"
     data-editor-trace-width-style=""
     data-editor-trace-paint-order=""
     vector-effect="non-scaling-stroke"
     paint-order="stroke fill"
     data-editor-trace="1"
     transform="matrix(13.997468,-13.997468,13.997468,13.997468,-215.53572,122.63816)"
     inkscape:label="icone">
    <path
       id="svg-editor-bg-shape"
       style="fill:#3d5cf5;stroke-width:1;stroke:none;fill-opacity:1"
       inkscape:label="fundo"
       transform="matrix(0.03572075,0.03572075,-0.03572075,0.03572075,12.079823,3.3183699)"
       d="M 71.111115,7.0193416e-8 H 184.88889 C 224.28444,7.0193416e-8 256,31.715557 256,71.111115 V 184.88889 C 256,224.28444 224.28444,256 184.88889,256 H 71.111115 C 31.715558,256 6.0251426e-7,224.28444 6.0251426e-7,184.88889 V 71.111115 C 6.0251426e-7,31.715557 31.715558,7.0193416e-8 71.111115,7.0193416e-8 Z" />
    <path
       d="m 6.8438,7.3987 c 1.17,0 2.15,0.78 2.47,1.85 v 0 h 5.7 c 0.41,0 0.75,0.34 0.75,0.75 v 0 1.85 c 0,0.42 -0.34,0.75 -0.75,0.75 -0.42,0 -0.75,-0.33 -0.75,-0.75 v 0 -1.1 h -1.33 v 1.1 c 0,0.42 -0.34,0.75 -0.75,0.75 -0.42,0 -0.75,-0.33 -0.75,-0.75 v 0 -1.1 h -2.12 c -0.32,1.07 -1.3,1.85 -2.47,1.85 -1.44,0 -2.61,-1.16 -2.61,-2.6 0,-1.43 1.17,-2.6 2.61,-2.6 z m 0,1.5 c -0.61,0 -1.11,0.49 -1.11,1.1 0,0.61 0.5,1.1 1.11,1.1 0.6,0 1.1,-0.49 1.1,-1.1 0,-0.61 -0.5,-1.1 -1.1,-1.1 z"
       id="Combined-Shape"
       fill="#FFFFFF"
       style="fill:#ffffff;stroke:none;stroke-width:0.0505169;display:inline"
       stroke="#0F172A"
       class=""
       data-editor-stroke-width-attr=""
       data-editor-stroke-width-style=""
       data-editor-trace-stored="1"
       data-editor-trace-stroke-attr="#FFFFFF"
       data-editor-trace-stroke-style="#FFFFFF"
       data-editor-trace-width-attr=""
       data-editor-trace-width-style=""
       data-editor-trace-paint-order=""
       vector-effect="non-scaling-stroke"
       paint-order="stroke fill"
       data-editor-trace="1"
       inkscape:label="chave"
       transform="translate(2.0004,1.9997999)" />
  </g>
  <metadata
     id="metadata1">
    <rdf:RDF>
      <cc:Work
         rdf:about="">
        <dc:title>Iconly/Bulk/Password</dc:title>
      </cc:Work>
    </rdf:RDF>
  </metadata>
</svg>
