<?xml version="1.0" encoding="UTF-8" standalone="no"?>
<svg
   viewBox="0 0 512 512"
   version="1.1"
   id="svg1"
   sodipodi:docname="icon-meteor-1.svg"
   inkscape:version="1.4.4 (dcaf3e7, 2026-05-05)"
   xmlns:inkscape="http://www.inkscape.org/namespaces/inkscape"
   xmlns:sodipodi="http://sodipodi.sourceforge.net/DTD/sodipodi-0.dtd"
   xmlns="http://www.w3.org/2000/svg"
   xmlns:svg="http://www.w3.org/2000/svg">
  <defs
     id="defs1" />
  <sodipodi:namedview
     id="namedview1"
     pagecolor="#505050"
     bordercolor="#ffffff"
     borderopacity="1"
     inkscape:showpageshadow="0"
     inkscape:pageopacity="0"
     inkscape:pagecheckerboard="1"
     inkscape:deskcolor="#505050"
     inkscape:zoom="0.78808594"
     inkscape:cx="139.57869"
     inkscape:cy="258.22057"
     inkscape:window-width="1920"
     inkscape:window-height="1009"
     inkscape:window-x="1912"
     inkscape:window-y="-8"
     inkscape:window-maximized="1"
     inkscape:current-layer="svg1" />
  <!--!Font Awesome Free v7.2.0 by @fontawesome - https://fontawesome.com License - https://fontawesome.com/license/free Copyright 2026 Fonticons, Inc.-->
  <rect
     style="fill:#1b2024;stroke-width:14;stroke-linecap:round;stroke-linejoin:round;paint-order:markers stroke fill;fill-opacity:1"
     id="rect1"
     width="512"
     height="512"
     x="0"
     y="0" />
  <path
     d="m 450.09843,47.70245 -158.57768,60.99769 1.8781,-23.925463 C 294.21543,74.322596 282.94678,67.218446 273.80121,72.444486 L 129.67679,155.89783 c -51.198864,29.64145 -82.718424,84.2699 -82.718424,143.38949 0,91.53737 74.226114,165.76349 165.763484,165.76349 59.11959,0 113.74805,-31.51956 143.38949,-82.71843 l 83.45334,-144.04275 c 5.30771,-9.06392 -1.79645,-20.41422 -12.33019,-19.59766 l -23.92546,1.87812 60.99769,-158.577685 c 0.48994,-1.224853 0.73491,-2.61302 0.73491,-3.91953 0,-6.124267 -4.89941,-11.023681 -11.02367,-11.023681 -1.38818,0 -2.69468,0.244971 -3.91953,0.734912 z M 203.73959,203.74877 a 104.52082,104.52082 0 1 1 0,209.04163 104.52082,104.52082 0 1 1 0,-209.04163 z m 0,78.39061 a 26.130204,26.130204 0 1 0 -52.2604,0 26.130204,26.130204 0 1 0 52.2604,0 z m 13.06511,78.39061 a 13.065106,13.065106 0 1 0 0,-26.13021 13.065106,13.065106 0 1 0 0,26.13021 z"
     id="path1"
     style="fill:#e5ecf2;fill-opacity:1;stroke-width:0.999993" />
</svg>
